<?xml version="1.0" encoding="utf-8"?>
<!-- Generator: Adobe Illustrator 16.2.1, SVG Export Plug-In . SVG Version: 6.00 Build 0)  -->
<!DOCTYPE svg PUBLIC "-//W3C//DTD SVG 1.1//EN" "http://www.w3.org/Graphics/SVG/1.1/DTD/svg11.dtd">
<svg version="1.1" id="Layer_1" xmlns="http://www.w3.org/2000/svg" xmlns:xlink="http://www.w3.org/1999/xlink" x="0px" y="0px"
	 width="153.893px" height="153.894px" viewBox="0 0 153.893 153.894" enable-background="new 0 0 153.893 153.894"
	 xml:space="preserve">
<path fill="#F3973F" d="M145.399,0H8.494C3.801,0,0,3.802,0,8.494V145.4c0,4.69,3.801,8.494,8.494,8.494h73.706V94.298H62.144
	V71.073h20.055V53.944c0-19.877,12.139-30.701,29.872-30.701c8.493,0,15.794,0.633,17.922,0.916v20.772l-12.299,0.005
	c-9.643,0-11.51,4.583-11.51,11.307v14.829h22.999l-2.995,23.225h-20.004v59.596h39.216c4.69,0,8.493-3.803,8.493-8.494V8.494
	C153.893,3.802,150.089,0,145.399,0z"/>
</svg>
