<?xml version="1.0" encoding="utf-8"?>
<!-- Generator: Adobe Illustrator 16.2.1, SVG Export Plug-In . SVG Version: 6.00 Build 0)  -->
<!DOCTYPE svg PUBLIC "-//W3C//DTD SVG 1.1//EN" "http://www.w3.org/Graphics/SVG/1.1/DTD/svg11.dtd">
<svg version="1.1" id="Layer_1" xmlns="http://www.w3.org/2000/svg" xmlns:xlink="http://www.w3.org/1999/xlink" x="0px" y="0px"
	 width="266.893px" height="266.895px" viewBox="0 0 266.893 266.895" enable-background="new 0 0 266.893 266.895"
	 xml:space="preserve">
<path fill="#FFFFFF" d="M252.164,0H14.73C6.593,0,0,6.594,0,14.73v237.434c0,8.135,6.593,14.73,14.73,14.73h127.826V163.539h-34.781
	V123.26h34.781V93.555c0-34.473,21.053-53.244,51.807-53.244c14.729,0,27.391,1.098,31.08,1.588v36.025l-21.33,0.01
	c-16.723,0-19.961,7.947-19.961,19.609v25.717h39.887l-5.195,40.279h-34.691v103.355h68.012c8.133,0,14.729-6.596,14.729-14.73
	V14.73C266.892,6.594,260.296,0,252.164,0z"/>
</svg>
