<?xml version="1.0" encoding="utf-8"?>
<!-- Generator: Adobe Illustrator 16.2.1, SVG Export Plug-In . SVG Version: 6.00 Build 0)  -->
<!DOCTYPE svg PUBLIC "-//W3C//DTD SVG 1.1//EN" "http://www.w3.org/Graphics/SVG/1.1/DTD/svg11.dtd">
<svg version="1.1" id="Layer_1" xmlns="http://www.w3.org/2000/svg" xmlns:xlink="http://www.w3.org/1999/xlink" x="0px" y="0px"
	 width="266.893px" height="266.895px" viewBox="0 0 266.893 266.895" enable-background="new 0 0 266.893 266.895"
	 xml:space="preserve">
<path fill="#FFFFFF" d="M246.098-0.1H19.947C9.135-0.1,0.356,8.473,0.356,19.022v227.127c0,10.569,8.779,19.15,19.591,19.15h226.151
	c10.823,0,19.658-8.582,19.658-19.15V19.022C265.756,8.473,256.921-0.1,246.098-0.1z M79.068,226.058H39.687V99.406h39.381V226.058z
	 M59.379,82.089c-12.618,0-22.817-10.228-22.817-22.832c0-12.589,10.199-22.817,22.817-22.817c12.585,0,22.812,10.229,22.812,22.817
	C82.192,71.861,71.964,82.089,59.379,82.089z M226.498,226.058h-39.318V164.47c0-14.697-0.288-33.588-20.46-33.588
	c-20.485,0-23.61,16.002-23.61,32.523v62.654h-39.352V99.406h37.763v17.297h0.538c5.255-9.954,18.1-20.456,37.25-20.456
	c39.832,0,47.19,26.226,47.19,60.34V226.058z"/>
</svg>
