<?xml version="1.0" encoding="utf-8"?>
<!-- Generator: Adobe Illustrator 16.2.1, SVG Export Plug-In . SVG Version: 6.00 Build 0)  -->
<!DOCTYPE svg PUBLIC "-//W3C//DTD SVG 1.1//EN" "http://www.w3.org/Graphics/SVG/1.1/DTD/svg11.dtd">
<svg version="1.1" id="Layer_1" xmlns="http://www.w3.org/2000/svg" xmlns:xlink="http://www.w3.org/1999/xlink" x="0px" y="0px"
	 width="266.893px" height="266.895px" viewBox="0 0 266.893 266.895" enable-background="new 0 0 266.893 266.895"
	 xml:space="preserve">
<path fill="#FFFFFF" d="M252.163,0H14.73C6.593,0,0,6.594,0,14.73v237.434c0,8.135,6.593,14.73,14.73,14.73h237.433
	c8.134,0,14.729-6.596,14.729-14.73V14.73C266.893,6.594,260.297,0,252.163,0z M196.111,224.076
	c-8.694,4.094-16.568,6.975-23.609,8.622c-7.049,1.647-14.671,2.472-22.866,2.472c-9.294,0-17.517-1.177-24.664-3.521
	c-7.145-2.352-13.238-5.705-18.289-10.044c-5.05-4.353-8.546-8.974-10.497-13.873c-1.95-4.893-2.923-11.993-2.923-21.287v-71.36
	H70.781v-28.79c7.99-2.598,14.841-6.314,20.533-11.17c5.703-4.842,10.272-10.665,13.718-17.463
	c3.453-6.793,5.825-15.439,7.123-25.937h28.935v51.425h48.277v31.935H141.09v52.173c0,11.792,0.622,19.363,1.875,22.715
	c1.245,3.347,3.574,6.019,6.967,8.019c4.504,2.697,9.647,4.05,15.446,4.05c10.294,0,20.542-3.352,30.733-10.05V224.076z"/>
</svg>
