<?xml version="1.0" encoding="utf-8"?>
<!-- Generator: Adobe Illustrator 16.2.1, SVG Export Plug-In . SVG Version: 6.00 Build 0)  -->
<!DOCTYPE svg PUBLIC "-//W3C//DTD SVG 1.1//EN" "http://www.w3.org/Graphics/SVG/1.1/DTD/svg11.dtd">
<svg version="1.1" id="Layer_1" xmlns="http://www.w3.org/2000/svg" xmlns:xlink="http://www.w3.org/1999/xlink" x="0px" y="0px"
	 width="266.893px" height="266.895px" viewBox="0 0 266.893 266.895" enable-background="new 0 0 266.893 266.895"
	 xml:space="preserve">
<path fill="#FFFFFF" d="M256.975,62.092c-9.017,3.999-18.707,6.703-28.876,7.917c10.379-6.222,18.351-16.075,22.106-27.816
	c-9.716,5.763-20.476,9.946-31.927,12.2c-9.171-9.771-22.237-15.876-36.699-15.876c-27.766,0-50.276,22.51-50.276,50.275
	c0,3.942,0.443,7.778,1.302,11.458c-41.785-2.096-78.833-22.113-103.629-52.53c-4.329,7.423-6.808,16.061-6.808,25.274
	c0,17.444,8.876,32.832,22.366,41.85c-8.24-0.261-15.994-2.522-22.771-6.29c-0.005,0.211-0.005,0.421-0.005,0.632
	c0,24.36,17.332,44.681,40.33,49.299c-4.219,1.149-8.661,1.764-13.247,1.764c-3.238,0-6.387-0.316-9.458-0.902
	c6.397,19.973,24.965,34.512,46.966,34.916c-17.207,13.485-38.887,21.522-62.442,21.522c-4.057,0-8.061-0.237-11.992-0.704
	c22.249,14.266,48.677,22.591,77.069,22.591c92.477,0,143.049-76.612,143.049-143.051c0-2.178-0.05-4.346-0.146-6.505
	C241.711,81.029,250.233,72.174,256.975,62.092z"/>
</svg>
