<?xml version="1.0" encoding="utf-8"?>
<!-- Generator: Adobe Illustrator 16.2.1, SVG Export Plug-In . SVG Version: 6.00 Build 0)  -->
<!DOCTYPE svg PUBLIC "-//W3C//DTD SVG 1.1//EN" "http://www.w3.org/Graphics/SVG/1.1/DTD/svg11.dtd">
<svg version="1.1" id="Layer_1" xmlns="http://www.w3.org/2000/svg" xmlns:xlink="http://www.w3.org/1999/xlink" x="0px" y="0px"
	 width="199.661px" height="162.537px" viewBox="0 0 199.661 162.537" enable-background="new 0 0 199.661 162.537"
	 xml:space="preserve">
<path fill="#F3973F" d="M199.661,19.241c-7.359,3.264-15.268,5.47-23.566,6.461c8.471-5.078,14.977-13.119,18.041-22.701
	c-7.93,4.702-16.711,8.117-26.057,9.957C160.595,4.983,149.931,0,138.128,0c-22.66,0-41.032,18.371-41.032,41.031
	c0,3.216,0.362,6.348,1.062,9.351C64.057,48.671,33.821,32.335,13.585,7.511c-3.533,6.06-5.557,13.107-5.557,20.628
	c0,14.235,7.244,26.795,18.254,34.153c-6.726-0.213-13.053-2.059-18.584-5.133c-0.004,0.172-0.004,0.344-0.004,0.517
	c0,19.88,14.144,36.464,32.914,40.234c-3.443,0.938-7.068,1.439-10.811,1.439c-2.644,0-5.214-0.258-7.72-0.736
	c5.222,16.301,20.375,28.165,38.331,28.495c-14.043,11.006-31.736,17.565-50.961,17.565c-3.312,0-6.578-0.194-9.787-0.574
	c18.158,11.643,39.727,18.437,62.898,18.437c75.473,0,116.746-62.524,116.746-116.747c0-1.778-0.041-3.548-0.119-5.309
	C187.204,34.696,194.159,27.469,199.661,19.241z"/>
</svg>
